<mxfile host="app.diagrams.net" agent="Mozilla/5.0 (Windows NT 10.0; Win64; x64) AppleWebKit/537.36 (KHTML, like Gecko) Chrome/130.0.0.0 Safari/537.36" version="24.8.6" pages="2">
  <diagram name="Page-1" id="qKLYJuRkuiFoEd1u3iZw">
    <mxGraphModel dx="1434" dy="756" grid="1" gridSize="10" guides="1" tooltips="1" connect="1" arrows="1" fold="1" page="1" pageScale="1" pageWidth="1169" pageHeight="827" math="0" shadow="0">
      <root>
        <mxCell id="0" />
        <mxCell id="1" parent="0" />
        <mxCell id="VngJL2sbs5lk7VrRDcRk-1" value="&lt;h2&gt;&lt;br&gt;&lt;/h2&gt;" style="html=1;whiteSpace=wrap;align=center;" vertex="1" parent="1">
          <mxGeometry x="190" y="30" width="590" height="540" as="geometry" />
        </mxCell>
        <mxCell id="VngJL2sbs5lk7VrRDcRk-2" value="comptable" style="shape=umlActor;verticalLabelPosition=bottom;verticalAlign=top;html=1;outlineConnect=0;" vertex="1" parent="1">
          <mxGeometry x="1670" y="405" width="30" height="60" as="geometry" />
        </mxCell>
        <mxCell id="VngJL2sbs5lk7VrRDcRk-3" value="chef d&#39;atelier" style="shape=umlActor;verticalLabelPosition=bottom;verticalAlign=top;html=1;outlineConnect=0;" vertex="1" parent="1">
          <mxGeometry x="20" y="310" width="30" height="60" as="geometry" />
        </mxCell>
        <mxCell id="VngJL2sbs5lk7VrRDcRk-4" value="magasignier" style="shape=umlActor;verticalLabelPosition=bottom;verticalAlign=top;html=1;outlineConnect=0;" vertex="1" parent="1">
          <mxGeometry x="1670" y="150" width="30" height="60" as="geometry" />
        </mxCell>
        <mxCell id="VngJL2sbs5lk7VrRDcRk-5" value="enregistrer un véhicule" style="ellipse;whiteSpace=wrap;html=1;" vertex="1" parent="1">
          <mxGeometry x="410" y="226" width="100" height="50" as="geometry" />
        </mxCell>
        <mxCell id="VngJL2sbs5lk7VrRDcRk-6" value="enregistrer réparations&amp;nbsp;&lt;div&gt;a faire&lt;/div&gt;" style="ellipse;whiteSpace=wrap;html=1;" vertex="1" parent="1">
          <mxGeometry x="210" y="170" width="140" height="70" as="geometry" />
        </mxCell>
        <mxCell id="VngJL2sbs5lk7VrRDcRk-7" value="définir quel mécanicien travail sur quel véhicule" style="ellipse;whiteSpace=wrap;html=1;" vertex="1" parent="1">
          <mxGeometry x="210" y="260" width="140" height="70" as="geometry" />
        </mxCell>
        <mxCell id="VngJL2sbs5lk7VrRDcRk-8" value="vérifier réparations" style="ellipse;whiteSpace=wrap;html=1;" vertex="1" parent="1">
          <mxGeometry x="410" y="320" width="140" height="70" as="geometry" />
        </mxCell>
        <mxCell id="VngJL2sbs5lk7VrRDcRk-9" value="clôturé dossier&lt;div&gt;&amp;nbsp;réparation&lt;/div&gt;" style="ellipse;whiteSpace=wrap;html=1;" vertex="1" parent="1">
          <mxGeometry x="240" y="405" width="140" height="70" as="geometry" />
        </mxCell>
        <mxCell id="VngJL2sbs5lk7VrRDcRk-10" value="crée un dossier de réparation" style="ellipse;whiteSpace=wrap;html=1;" vertex="1" parent="1">
          <mxGeometry x="210" y="60" width="140" height="70" as="geometry" />
        </mxCell>
        <mxCell id="VngJL2sbs5lk7VrRDcRk-11" value="mécanicien" style="shape=umlActor;verticalLabelPosition=bottom;verticalAlign=top;html=1;" vertex="1" parent="1">
          <mxGeometry x="1179" y="539" width="30" height="60" as="geometry" />
        </mxCell>
        <mxCell id="VngJL2sbs5lk7VrRDcRk-12" value="" style="html=1;whiteSpace=wrap;" vertex="1" parent="1">
          <mxGeometry x="840" y="414" width="290" height="370" as="geometry" />
        </mxCell>
        <mxCell id="VngJL2sbs5lk7VrRDcRk-13" value="faire les réparations&lt;div&gt;enregistrés&lt;/div&gt;" style="ellipse;whiteSpace=wrap;html=1;" vertex="1" parent="1">
          <mxGeometry x="880" y="584" width="140" height="70" as="geometry" />
        </mxCell>
        <mxCell id="VngJL2sbs5lk7VrRDcRk-14" value="changer des pièces" style="ellipse;whiteSpace=wrap;html=1;" vertex="1" parent="1">
          <mxGeometry x="880" y="704" width="140" height="70" as="geometry" />
        </mxCell>
        <mxCell id="VngJL2sbs5lk7VrRDcRk-15" value="" style="html=1;whiteSpace=wrap;" vertex="1" parent="1">
          <mxGeometry x="1260" y="30" width="350" height="490" as="geometry" />
        </mxCell>
        <mxCell id="VngJL2sbs5lk7VrRDcRk-16" value="donner les pieces" style="ellipse;whiteSpace=wrap;html=1;" vertex="1" parent="1">
          <mxGeometry x="1360" y="40" width="140" height="70" as="geometry" />
        </mxCell>
        <mxCell id="VngJL2sbs5lk7VrRDcRk-17" value="commander les pieces" style="ellipse;whiteSpace=wrap;html=1;" vertex="1" parent="1">
          <mxGeometry x="1270" y="175" width="140" height="70" as="geometry" />
        </mxCell>
        <mxCell id="VngJL2sbs5lk7VrRDcRk-18" value="réceptionner les pièces" style="ellipse;whiteSpace=wrap;html=1;" vertex="1" parent="1">
          <mxGeometry x="1340" y="289" width="140" height="70" as="geometry" />
        </mxCell>
        <mxCell id="VngJL2sbs5lk7VrRDcRk-19" value="envoyer liste des réparations" style="ellipse;whiteSpace=wrap;html=1;" vertex="1" parent="1">
          <mxGeometry x="345" y="495" width="140" height="70" as="geometry" />
        </mxCell>
        <mxCell id="VngJL2sbs5lk7VrRDcRk-20" value="" style="html=1;whiteSpace=wrap;" vertex="1" parent="1">
          <mxGeometry x="1800" y="282" width="250" height="450" as="geometry" />
        </mxCell>
        <mxCell id="VngJL2sbs5lk7VrRDcRk-21" value="réceptionne les listes réparations et des pièces" style="ellipse;whiteSpace=wrap;html=1;" vertex="1" parent="1">
          <mxGeometry x="1830" y="322" width="140" height="70" as="geometry" />
        </mxCell>
        <mxCell id="VngJL2sbs5lk7VrRDcRk-22" value="émet factures" style="ellipse;whiteSpace=wrap;html=1;" vertex="1" parent="1">
          <mxGeometry x="1830" y="502" width="140" height="70" as="geometry" />
        </mxCell>
        <mxCell id="VngJL2sbs5lk7VrRDcRk-23" value="imprime les factures" style="ellipse;whiteSpace=wrap;html=1;" vertex="1" parent="1">
          <mxGeometry x="1830" y="652" width="140" height="70" as="geometry" />
        </mxCell>
        <mxCell id="VngJL2sbs5lk7VrRDcRk-24" value="gestion des réparations" style="text;align=left;fontStyle=1;verticalAlign=middle;spacingLeft=3;spacingRight=3;strokeColor=none;rotatable=0;points=[[0,0.5],[1,0.5]];portConstraint=eastwest;fontSize=19;" vertex="1" parent="1">
          <mxGeometry x="190" y="20" width="456" height="40" as="geometry" />
        </mxCell>
        <mxCell id="VngJL2sbs5lk7VrRDcRk-25" value="&lt;font style=&quot;font-size: 19px;&quot;&gt;comptabilité&lt;/font&gt;" style="text;align=left;fontStyle=1;verticalAlign=middle;spacingLeft=3;spacingRight=3;strokeColor=none;rotatable=0;points=[[0,0.5],[1,0.5]];portConstraint=eastwest;html=1;" vertex="1" parent="1">
          <mxGeometry x="1800" y="282" width="80" height="26" as="geometry" />
        </mxCell>
        <mxCell id="VngJL2sbs5lk7VrRDcRk-26" value="&lt;font style=&quot;font-size: 19px;&quot;&gt;gestion du stocke et des pièces&lt;/font&gt;" style="text;align=left;fontStyle=1;verticalAlign=middle;spacingLeft=3;spacingRight=3;strokeColor=none;rotatable=0;points=[[0,0.5],[1,0.5]];portConstraint=eastwest;html=1;" vertex="1" parent="1">
          <mxGeometry x="1260" y="494" width="80" height="26" as="geometry" />
        </mxCell>
        <mxCell id="VngJL2sbs5lk7VrRDcRk-27" value="&lt;font style=&quot;font-size: 19px;&quot;&gt;réparations&lt;/font&gt;" style="text;align=left;fontStyle=1;verticalAlign=middle;spacingLeft=3;spacingRight=3;strokeColor=none;rotatable=0;points=[[0,0.5],[1,0.5]];portConstraint=eastwest;html=1;" vertex="1" parent="1">
          <mxGeometry x="840" y="414" width="80" height="26" as="geometry" />
        </mxCell>
        <mxCell id="VngJL2sbs5lk7VrRDcRk-28" value="extend" style="endArrow=open;endSize=12;dashed=1;html=1;rounded=0;entryX=0.5;entryY=1;entryDx=0;entryDy=0;exitX=0.5;exitY=0;exitDx=0;exitDy=0;" edge="1" parent="1" source="VngJL2sbs5lk7VrRDcRk-14" target="VngJL2sbs5lk7VrRDcRk-13">
          <mxGeometry width="160" relative="1" as="geometry">
            <mxPoint x="1220" y="694" as="sourcePoint" />
            <mxPoint x="1270" y="688" as="targetPoint" />
          </mxGeometry>
        </mxCell>
        <mxCell id="VngJL2sbs5lk7VrRDcRk-29" value="include" style="endArrow=open;endSize=12;dashed=1;html=1;rounded=0;exitX=1;exitY=0.5;exitDx=0;exitDy=0;" edge="1" parent="1" source="VngJL2sbs5lk7VrRDcRk-10" target="VngJL2sbs5lk7VrRDcRk-5">
          <mxGeometry width="160" relative="1" as="geometry">
            <mxPoint x="70" y="340" as="sourcePoint" />
            <mxPoint x="230" y="340" as="targetPoint" />
          </mxGeometry>
        </mxCell>
        <mxCell id="VngJL2sbs5lk7VrRDcRk-30" value="include" style="endArrow=open;endSize=12;dashed=1;html=1;rounded=0;exitX=0.5;exitY=1;exitDx=0;exitDy=0;" edge="1" parent="1" source="VngJL2sbs5lk7VrRDcRk-10" target="VngJL2sbs5lk7VrRDcRk-6">
          <mxGeometry width="160" relative="1" as="geometry">
            <mxPoint x="70" y="340" as="sourcePoint" />
            <mxPoint x="230" y="340" as="targetPoint" />
          </mxGeometry>
        </mxCell>
        <mxCell id="VngJL2sbs5lk7VrRDcRk-31" value="include" style="endArrow=open;endSize=12;dashed=1;html=1;rounded=0;exitX=0.207;exitY=0.114;exitDx=0;exitDy=0;entryX=0.5;entryY=1;entryDx=0;entryDy=0;exitPerimeter=0;" edge="1" parent="1" source="VngJL2sbs5lk7VrRDcRk-19" target="VngJL2sbs5lk7VrRDcRk-9">
          <mxGeometry x="0.0124" width="160" relative="1" as="geometry">
            <mxPoint x="-80" y="355" as="sourcePoint" />
            <mxPoint x="256" y="560" as="targetPoint" />
            <mxPoint as="offset" />
          </mxGeometry>
        </mxCell>
        <mxCell id="VngJL2sbs5lk7VrRDcRk-32" value="extend" style="endArrow=open;endSize=12;dashed=1;html=1;rounded=0;exitX=0.771;exitY=0.114;exitDx=0;exitDy=0;exitPerimeter=0;" edge="1" parent="1" source="VngJL2sbs5lk7VrRDcRk-17" target="VngJL2sbs5lk7VrRDcRk-16">
          <mxGeometry width="160" relative="1" as="geometry">
            <mxPoint x="1860" y="220" as="sourcePoint" />
            <mxPoint x="2020" y="220" as="targetPoint" />
          </mxGeometry>
        </mxCell>
        <mxCell id="VngJL2sbs5lk7VrRDcRk-33" value="include" style="endArrow=open;endSize=12;dashed=1;html=1;rounded=0;exitX=0;exitY=0.5;exitDx=0;exitDy=0;entryX=0.5;entryY=1;entryDx=0;entryDy=0;" edge="1" parent="1" source="VngJL2sbs5lk7VrRDcRk-18" target="VngJL2sbs5lk7VrRDcRk-17">
          <mxGeometry width="160" relative="1" as="geometry">
            <mxPoint x="1860" y="220" as="sourcePoint" />
            <mxPoint x="2020" y="220" as="targetPoint" />
          </mxGeometry>
        </mxCell>
        <mxCell id="VngJL2sbs5lk7VrRDcRk-34" value="include" style="endArrow=open;endSize=12;dashed=1;html=1;rounded=0;exitX=0.5;exitY=1;exitDx=0;exitDy=0;entryX=0.5;entryY=0;entryDx=0;entryDy=0;" edge="1" parent="1" source="VngJL2sbs5lk7VrRDcRk-22" target="VngJL2sbs5lk7VrRDcRk-23">
          <mxGeometry width="160" relative="1" as="geometry">
            <mxPoint x="1680" y="282" as="sourcePoint" />
            <mxPoint x="1840" y="282" as="targetPoint" />
          </mxGeometry>
        </mxCell>
        <mxCell id="VngJL2sbs5lk7VrRDcRk-35" value="" style="endArrow=open;endFill=1;endSize=12;html=1;rounded=0;exitX=0.447;exitY=0.669;exitDx=0;exitDy=0;exitPerimeter=0;entryX=1;entryY=0.5;entryDx=0;entryDy=0;" edge="1" parent="1" source="VngJL2sbs5lk7VrRDcRk-11" target="VngJL2sbs5lk7VrRDcRk-13">
          <mxGeometry width="160" relative="1" as="geometry">
            <mxPoint x="1500" y="774" as="sourcePoint" />
            <mxPoint x="1660" y="774" as="targetPoint" />
          </mxGeometry>
        </mxCell>
        <mxCell id="VngJL2sbs5lk7VrRDcRk-36" value="" style="endArrow=open;endFill=1;endSize=12;html=1;rounded=0;exitX=0.486;exitY=0.669;exitDx=0;exitDy=0;exitPerimeter=0;" edge="1" parent="1" source="VngJL2sbs5lk7VrRDcRk-11" target="VngJL2sbs5lk7VrRDcRk-14">
          <mxGeometry width="160" relative="1" as="geometry">
            <mxPoint x="1202" y="589" as="sourcePoint" />
            <mxPoint x="1030" y="529" as="targetPoint" />
          </mxGeometry>
        </mxCell>
        <mxCell id="VngJL2sbs5lk7VrRDcRk-37" value="" style="endArrow=open;endFill=1;endSize=12;html=1;rounded=0;exitX=0.5;exitY=0.5;exitDx=0;exitDy=0;exitPerimeter=0;entryX=1;entryY=0.5;entryDx=0;entryDy=0;" edge="1" parent="1" source="VngJL2sbs5lk7VrRDcRk-4" target="VngJL2sbs5lk7VrRDcRk-16">
          <mxGeometry width="160" relative="1" as="geometry">
            <mxPoint x="1920" y="100" as="sourcePoint" />
            <mxPoint x="2080" y="100" as="targetPoint" />
          </mxGeometry>
        </mxCell>
        <mxCell id="VngJL2sbs5lk7VrRDcRk-38" value="" style="endArrow=open;endFill=1;endSize=12;html=1;rounded=0;exitX=0.5;exitY=0.5;exitDx=0;exitDy=0;exitPerimeter=0;" edge="1" parent="1" source="VngJL2sbs5lk7VrRDcRk-4" target="VngJL2sbs5lk7VrRDcRk-17">
          <mxGeometry width="160" relative="1" as="geometry">
            <mxPoint x="1654" y="190" as="sourcePoint" />
            <mxPoint x="1510" y="85" as="targetPoint" />
          </mxGeometry>
        </mxCell>
        <mxCell id="VngJL2sbs5lk7VrRDcRk-39" value="" style="endArrow=open;endFill=1;endSize=12;html=1;rounded=0;exitX=0.5;exitY=0.5;exitDx=0;exitDy=0;exitPerimeter=0;entryX=1;entryY=0;entryDx=0;entryDy=0;" edge="1" parent="1" source="VngJL2sbs5lk7VrRDcRk-4" target="VngJL2sbs5lk7VrRDcRk-18">
          <mxGeometry width="160" relative="1" as="geometry">
            <mxPoint x="1654" y="190" as="sourcePoint" />
            <mxPoint x="1419" y="213" as="targetPoint" />
          </mxGeometry>
        </mxCell>
        <mxCell id="VngJL2sbs5lk7VrRDcRk-40" value="" style="endArrow=open;endFill=1;endSize=12;html=1;rounded=0;exitX=0.5;exitY=0.5;exitDx=0;exitDy=0;exitPerimeter=0;entryX=0;entryY=0.5;entryDx=0;entryDy=0;" edge="1" parent="1" source="VngJL2sbs5lk7VrRDcRk-3" target="VngJL2sbs5lk7VrRDcRk-10">
          <mxGeometry width="160" relative="1" as="geometry">
            <mxPoint x="130" y="290" as="sourcePoint" />
            <mxPoint x="290" y="290" as="targetPoint" />
          </mxGeometry>
        </mxCell>
        <mxCell id="VngJL2sbs5lk7VrRDcRk-41" value="" style="endArrow=open;endFill=1;endSize=12;html=1;rounded=0;entryX=0;entryY=0.5;entryDx=0;entryDy=0;exitX=0.5;exitY=0.5;exitDx=0;exitDy=0;exitPerimeter=0;" edge="1" parent="1" source="VngJL2sbs5lk7VrRDcRk-3" target="VngJL2sbs5lk7VrRDcRk-6">
          <mxGeometry width="160" relative="1" as="geometry">
            <mxPoint x="40" y="340" as="sourcePoint" />
            <mxPoint x="290" y="290" as="targetPoint" />
          </mxGeometry>
        </mxCell>
        <mxCell id="VngJL2sbs5lk7VrRDcRk-42" value="" style="endArrow=open;endFill=1;endSize=12;html=1;rounded=0;exitX=0.5;exitY=0.5;exitDx=0;exitDy=0;exitPerimeter=0;entryX=0;entryY=0.5;entryDx=0;entryDy=0;" edge="1" parent="1" source="VngJL2sbs5lk7VrRDcRk-3" target="VngJL2sbs5lk7VrRDcRk-8">
          <mxGeometry width="160" relative="1" as="geometry">
            <mxPoint x="130" y="290" as="sourcePoint" />
            <mxPoint x="290" y="290" as="targetPoint" />
          </mxGeometry>
        </mxCell>
        <mxCell id="VngJL2sbs5lk7VrRDcRk-43" value="" style="endArrow=open;endFill=1;endSize=12;html=1;rounded=0;entryX=0.072;entryY=0.762;entryDx=0;entryDy=0;entryPerimeter=0;exitX=0.5;exitY=0.5;exitDx=0;exitDy=0;exitPerimeter=0;" edge="1" parent="1" source="VngJL2sbs5lk7VrRDcRk-3" target="VngJL2sbs5lk7VrRDcRk-7">
          <mxGeometry width="160" relative="1" as="geometry">
            <mxPoint x="30" y="340" as="sourcePoint" />
            <mxPoint x="290" y="290" as="targetPoint" />
          </mxGeometry>
        </mxCell>
        <mxCell id="VngJL2sbs5lk7VrRDcRk-44" value="" style="endArrow=open;endFill=1;endSize=12;html=1;rounded=0;exitX=1;exitY=1;exitDx=0;exitDy=0;exitPerimeter=0;entryX=0;entryY=0.5;entryDx=0;entryDy=0;" edge="1" parent="1" source="VngJL2sbs5lk7VrRDcRk-3" target="VngJL2sbs5lk7VrRDcRk-9">
          <mxGeometry width="160" relative="1" as="geometry">
            <mxPoint x="130" y="290" as="sourcePoint" />
            <mxPoint x="290" y="290" as="targetPoint" />
          </mxGeometry>
        </mxCell>
        <mxCell id="VngJL2sbs5lk7VrRDcRk-45" value="" style="endArrow=open;endFill=1;endSize=12;html=1;rounded=0;exitX=0.5;exitY=0.5;exitDx=0;exitDy=0;exitPerimeter=0;entryX=0;entryY=0.5;entryDx=0;entryDy=0;" edge="1" parent="1" source="VngJL2sbs5lk7VrRDcRk-2" target="VngJL2sbs5lk7VrRDcRk-21">
          <mxGeometry width="160" relative="1" as="geometry">
            <mxPoint x="1740" y="282" as="sourcePoint" />
            <mxPoint x="1900" y="282" as="targetPoint" />
          </mxGeometry>
        </mxCell>
        <mxCell id="VngJL2sbs5lk7VrRDcRk-46" value="" style="endArrow=open;endFill=1;endSize=12;html=1;rounded=0;exitX=0.5;exitY=0.5;exitDx=0;exitDy=0;exitPerimeter=0;entryX=0;entryY=0.5;entryDx=0;entryDy=0;" edge="1" parent="1" source="VngJL2sbs5lk7VrRDcRk-2" target="VngJL2sbs5lk7VrRDcRk-22">
          <mxGeometry width="160" relative="1" as="geometry">
            <mxPoint x="1740" y="282" as="sourcePoint" />
            <mxPoint x="1900" y="282" as="targetPoint" />
          </mxGeometry>
        </mxCell>
        <mxCell id="VngJL2sbs5lk7VrRDcRk-47" value="" style="endArrow=open;endFill=1;endSize=12;html=1;rounded=0;exitX=0.5;exitY=0.5;exitDx=0;exitDy=0;exitPerimeter=0;entryX=0;entryY=0.5;entryDx=0;entryDy=0;" edge="1" parent="1" source="VngJL2sbs5lk7VrRDcRk-2" target="VngJL2sbs5lk7VrRDcRk-23">
          <mxGeometry width="160" relative="1" as="geometry">
            <mxPoint x="1740" y="282" as="sourcePoint" />
            <mxPoint x="1900" y="282" as="targetPoint" />
          </mxGeometry>
        </mxCell>
        <mxCell id="VngJL2sbs5lk7VrRDcRk-48" value="enregistrer un client" style="ellipse;whiteSpace=wrap;html=1;" vertex="1" parent="1">
          <mxGeometry x="590" y="216" width="140" height="70" as="geometry" />
        </mxCell>
        <mxCell id="VngJL2sbs5lk7VrRDcRk-49" value="Use" style="endArrow=open;endSize=12;dashed=1;html=1;rounded=0;exitX=1;exitY=0.5;exitDx=0;exitDy=0;" edge="1" parent="1" source="VngJL2sbs5lk7VrRDcRk-5" target="VngJL2sbs5lk7VrRDcRk-48">
          <mxGeometry width="160" relative="1" as="geometry">
            <mxPoint x="140" y="290" as="sourcePoint" />
            <mxPoint x="300" y="290" as="targetPoint" />
          </mxGeometry>
        </mxCell>
        <mxCell id="VngJL2sbs5lk7VrRDcRk-50" value="extend" style="endArrow=open;endSize=12;dashed=1;html=1;rounded=0;exitX=1;exitY=0;exitDx=0;exitDy=0;entryX=0;entryY=1;entryDx=0;entryDy=0;" edge="1" parent="1" source="VngJL2sbs5lk7VrRDcRk-9" target="VngJL2sbs5lk7VrRDcRk-8">
          <mxGeometry width="160" relative="1" as="geometry">
            <mxPoint x="170" y="400" as="sourcePoint" />
            <mxPoint x="330" y="400" as="targetPoint" />
          </mxGeometry>
        </mxCell>
        <mxCell id="VngJL2sbs5lk7VrRDcRk-51" value="restitution véhicule" style="ellipse;whiteSpace=wrap;html=1;" vertex="1" parent="1">
          <mxGeometry x="590" y="370" width="140" height="70" as="geometry" />
        </mxCell>
        <mxCell id="VngJL2sbs5lk7VrRDcRk-52" value="achat nouveau véhicule" style="ellipse;whiteSpace=wrap;html=1;" vertex="1" parent="1">
          <mxGeometry x="590" y="475" width="140" height="70" as="geometry" />
        </mxCell>
        <mxCell id="VngJL2sbs5lk7VrRDcRk-53" value="extend" style="endArrow=open;endSize=12;dashed=1;html=1;rounded=0;exitX=0;exitY=0;exitDx=0;exitDy=0;entryX=1;entryY=1;entryDx=0;entryDy=0;" edge="1" parent="1" source="VngJL2sbs5lk7VrRDcRk-52" target="VngJL2sbs5lk7VrRDcRk-9">
          <mxGeometry width="160" relative="1" as="geometry">
            <mxPoint x="550" y="400" as="sourcePoint" />
            <mxPoint x="710" y="400" as="targetPoint" />
          </mxGeometry>
        </mxCell>
        <mxCell id="VngJL2sbs5lk7VrRDcRk-54" value="extend" style="endArrow=open;endSize=12;dashed=1;html=1;rounded=0;exitX=0;exitY=0.5;exitDx=0;exitDy=0;entryX=1;entryY=0.5;entryDx=0;entryDy=0;" edge="1" parent="1" source="VngJL2sbs5lk7VrRDcRk-51" target="VngJL2sbs5lk7VrRDcRk-9">
          <mxGeometry width="160" relative="1" as="geometry">
            <mxPoint x="550" y="400" as="sourcePoint" />
            <mxPoint x="710" y="400" as="targetPoint" />
          </mxGeometry>
        </mxCell>
        <mxCell id="VngJL2sbs5lk7VrRDcRk-55" value="commerciale" style="shape=umlActor;verticalLabelPosition=bottom;verticalAlign=top;html=1;" vertex="1" parent="1">
          <mxGeometry x="2545" y="173" width="30" height="60" as="geometry" />
        </mxCell>
        <mxCell id="VngJL2sbs5lk7VrRDcRk-56" value="" style="html=1;whiteSpace=wrap;" vertex="1" parent="1">
          <mxGeometry x="2211" y="20" width="250" height="530" as="geometry" />
        </mxCell>
        <mxCell id="VngJL2sbs5lk7VrRDcRk-57" value="accueillir client" style="ellipse;whiteSpace=wrap;html=1;" vertex="1" parent="1">
          <mxGeometry x="2301" y="60" width="140" height="70" as="geometry" />
        </mxCell>
        <mxCell id="VngJL2sbs5lk7VrRDcRk-58" value="proposer véhicules" style="ellipse;whiteSpace=wrap;html=1;" vertex="1" parent="1">
          <mxGeometry x="2215" y="130" width="140" height="70" as="geometry" />
        </mxCell>
        <mxCell id="VngJL2sbs5lk7VrRDcRk-59" value="commande nouveau&lt;div&gt;véhicule&lt;/div&gt;" style="ellipse;whiteSpace=wrap;html=1;" vertex="1" parent="1">
          <mxGeometry x="2301" y="380" width="140" height="70" as="geometry" />
        </mxCell>
        <mxCell id="VngJL2sbs5lk7VrRDcRk-60" value="Facturation nouveau véhicule" style="ellipse;whiteSpace=wrap;html=1;" vertex="1" parent="1">
          <mxGeometry x="2215" y="470" width="140" height="70" as="geometry" />
        </mxCell>
        <mxCell id="VngJL2sbs5lk7VrRDcRk-61" value="réceptionne commandes&lt;div&gt;nouveaux véhicules&lt;/div&gt;" style="ellipse;whiteSpace=wrap;html=1;" vertex="1" parent="1">
          <mxGeometry x="1890" y="405" width="150" height="70" as="geometry" />
        </mxCell>
        <mxCell id="VngJL2sbs5lk7VrRDcRk-62" value="" style="endArrow=open;endFill=1;endSize=12;html=1;rounded=0;exitX=0.5;exitY=0.5;exitDx=0;exitDy=0;exitPerimeter=0;entryX=0;entryY=0.5;entryDx=0;entryDy=0;" edge="1" parent="1" source="VngJL2sbs5lk7VrRDcRk-2" target="VngJL2sbs5lk7VrRDcRk-61">
          <mxGeometry width="160" relative="1" as="geometry">
            <mxPoint x="2160" y="402" as="sourcePoint" />
            <mxPoint x="2320" y="402" as="targetPoint" />
          </mxGeometry>
        </mxCell>
        <mxCell id="VngJL2sbs5lk7VrRDcRk-63" value="enregistré&amp;nbsp;&lt;div&gt;nouveau client&lt;/div&gt;" style="ellipse;whiteSpace=wrap;html=1;" vertex="1" parent="1">
          <mxGeometry x="2225" y="310" width="140" height="70" as="geometry" />
        </mxCell>
        <mxCell id="VngJL2sbs5lk7VrRDcRk-64" value="" style="endArrow=open;endFill=1;endSize=12;html=1;rounded=0;exitX=0.5;exitY=0;exitDx=0;exitDy=0;exitPerimeter=0;entryX=1;entryY=0.5;entryDx=0;entryDy=0;" edge="1" parent="1" source="VngJL2sbs5lk7VrRDcRk-55" target="VngJL2sbs5lk7VrRDcRk-57">
          <mxGeometry width="160" relative="1" as="geometry">
            <mxPoint x="2205" y="170" as="sourcePoint" />
            <mxPoint x="2365" y="170" as="targetPoint" />
          </mxGeometry>
        </mxCell>
        <mxCell id="VngJL2sbs5lk7VrRDcRk-65" value="" style="endArrow=open;endFill=1;endSize=12;html=1;rounded=0;exitX=0;exitY=0.3333333333333333;exitDx=0;exitDy=0;exitPerimeter=0;entryX=1;entryY=0.5;entryDx=0;entryDy=0;" edge="1" parent="1" source="VngJL2sbs5lk7VrRDcRk-55" target="VngJL2sbs5lk7VrRDcRk-58">
          <mxGeometry width="160" relative="1" as="geometry">
            <mxPoint x="2205" y="170" as="sourcePoint" />
            <mxPoint x="2365" y="170" as="targetPoint" />
          </mxGeometry>
        </mxCell>
        <mxCell id="VngJL2sbs5lk7VrRDcRk-66" value="sélection modèle" style="ellipse;whiteSpace=wrap;html=1;" vertex="1" parent="1">
          <mxGeometry x="2235" y="225" width="140" height="70" as="geometry" />
        </mxCell>
        <mxCell id="VngJL2sbs5lk7VrRDcRk-67" value="client" style="shape=umlActor;verticalLabelPosition=bottom;verticalAlign=top;html=1;" vertex="1" parent="1">
          <mxGeometry x="2140" y="230" width="30" height="60" as="geometry" />
        </mxCell>
        <mxCell id="VngJL2sbs5lk7VrRDcRk-68" value="" style="endArrow=open;endFill=1;endSize=12;html=1;rounded=0;exitX=0.5;exitY=0.5;exitDx=0;exitDy=0;exitPerimeter=0;entryX=0;entryY=0.5;entryDx=0;entryDy=0;" edge="1" parent="1" source="VngJL2sbs5lk7VrRDcRk-67" target="VngJL2sbs5lk7VrRDcRk-66">
          <mxGeometry width="160" relative="1" as="geometry">
            <mxPoint x="2205" y="280" as="sourcePoint" />
            <mxPoint x="2365" y="280" as="targetPoint" />
          </mxGeometry>
        </mxCell>
        <mxCell id="VngJL2sbs5lk7VrRDcRk-69" value="" style="endArrow=open;endFill=1;endSize=12;html=1;rounded=0;exitX=0.5;exitY=0.5;exitDx=0;exitDy=0;exitPerimeter=0;entryX=1;entryY=0.5;entryDx=0;entryDy=0;" edge="1" parent="1" source="VngJL2sbs5lk7VrRDcRk-55" target="VngJL2sbs5lk7VrRDcRk-63">
          <mxGeometry width="160" relative="1" as="geometry">
            <mxPoint x="2205" y="280" as="sourcePoint" />
            <mxPoint x="2365" y="280" as="targetPoint" />
          </mxGeometry>
        </mxCell>
        <mxCell id="VngJL2sbs5lk7VrRDcRk-70" value="" style="endArrow=open;endFill=1;endSize=12;html=1;rounded=0;exitX=0.5;exitY=0.5;exitDx=0;exitDy=0;exitPerimeter=0;entryX=1;entryY=0.5;entryDx=0;entryDy=0;" edge="1" parent="1" source="VngJL2sbs5lk7VrRDcRk-55" target="VngJL2sbs5lk7VrRDcRk-59">
          <mxGeometry width="160" relative="1" as="geometry">
            <mxPoint x="2205" y="280" as="sourcePoint" />
            <mxPoint x="2365" y="280" as="targetPoint" />
          </mxGeometry>
        </mxCell>
        <mxCell id="VngJL2sbs5lk7VrRDcRk-71" value="include" style="endArrow=open;endSize=12;dashed=1;html=1;rounded=0;exitX=0;exitY=0.5;exitDx=0;exitDy=0;entryX=0.5;entryY=0;entryDx=0;entryDy=0;" edge="1" parent="1" source="VngJL2sbs5lk7VrRDcRk-59" target="VngJL2sbs5lk7VrRDcRk-60">
          <mxGeometry width="160" relative="1" as="geometry">
            <mxPoint x="2205" y="280" as="sourcePoint" />
            <mxPoint x="2365" y="280" as="targetPoint" />
          </mxGeometry>
        </mxCell>
        <mxCell id="VngJL2sbs5lk7VrRDcRk-72" value="&lt;font style=&quot;font-size: 19px;&quot;&gt;Vente commerciale&lt;/font&gt;" style="text;align=left;fontStyle=1;verticalAlign=middle;spacingLeft=3;spacingRight=3;strokeColor=none;rotatable=0;points=[[0,0.5],[1,0.5]];portConstraint=eastwest;html=1;" vertex="1" parent="1">
          <mxGeometry x="2211" y="20" width="80" height="26" as="geometry" />
        </mxCell>
        <mxCell id="VngJL2sbs5lk7VrRDcRk-73" value="client" style="shape=umlActor;verticalLabelPosition=bottom;verticalAlign=top;html=1;" vertex="1" parent="1">
          <mxGeometry x="880" y="110" width="30" height="60" as="geometry" />
        </mxCell>
        <mxCell id="VngJL2sbs5lk7VrRDcRk-74" value="rapport véhicule endommager" style="ellipse;whiteSpace=wrap;html=1;" vertex="1" parent="1">
          <mxGeometry x="611" y="60" width="140" height="70" as="geometry" />
        </mxCell>
        <mxCell id="VngJL2sbs5lk7VrRDcRk-75" value="" style="endArrow=open;endFill=1;endSize=12;html=1;rounded=0;exitX=0.5;exitY=0.5;exitDx=0;exitDy=0;exitPerimeter=0;entryX=1;entryY=0.5;entryDx=0;entryDy=0;" edge="1" parent="1" source="VngJL2sbs5lk7VrRDcRk-73" target="VngJL2sbs5lk7VrRDcRk-74">
          <mxGeometry width="160" relative="1" as="geometry">
            <mxPoint x="730" y="400" as="sourcePoint" />
            <mxPoint x="890" y="400" as="targetPoint" />
          </mxGeometry>
        </mxCell>
        <mxCell id="VngJL2sbs5lk7VrRDcRk-76" value="include" style="endArrow=open;endSize=12;dashed=1;html=1;rounded=0;exitX=0;exitY=0.5;exitDx=0;exitDy=0;" edge="1" parent="1" source="VngJL2sbs5lk7VrRDcRk-74" target="VngJL2sbs5lk7VrRDcRk-10">
          <mxGeometry width="160" relative="1" as="geometry">
            <mxPoint x="730" y="400" as="sourcePoint" />
            <mxPoint x="890" y="400" as="targetPoint" />
          </mxGeometry>
        </mxCell>
        <mxCell id="VngJL2sbs5lk7VrRDcRk-77" value="réception nouveaux véhicules" style="ellipse;whiteSpace=wrap;html=1;" vertex="1" parent="1">
          <mxGeometry x="1410" y="395" width="140" height="70" as="geometry" />
        </mxCell>
        <mxCell id="VngJL2sbs5lk7VrRDcRk-78" value="" style="endArrow=open;endFill=1;endSize=12;html=1;rounded=0;exitX=0;exitY=1;exitDx=0;exitDy=0;exitPerimeter=0;" edge="1" parent="1" source="VngJL2sbs5lk7VrRDcRk-4" target="VngJL2sbs5lk7VrRDcRk-77">
          <mxGeometry width="160" relative="1" as="geometry">
            <mxPoint x="1630" y="210" as="sourcePoint" />
            <mxPoint x="1770" y="210" as="targetPoint" />
          </mxGeometry>
        </mxCell>
        <mxCell id="VngJL2sbs5lk7VrRDcRk-79" value="trouver panne" style="ellipse;whiteSpace=wrap;html=1;" vertex="1" parent="1">
          <mxGeometry x="880" y="454" width="140" height="70" as="geometry" />
        </mxCell>
        <mxCell id="VngJL2sbs5lk7VrRDcRk-80" value="" style="endArrow=open;endFill=1;endSize=12;html=1;rounded=0;exitX=0.5;exitY=0.5;exitDx=0;exitDy=0;exitPerimeter=0;entryX=1;entryY=0.5;entryDx=0;entryDy=0;" edge="1" parent="1" source="VngJL2sbs5lk7VrRDcRk-11" target="VngJL2sbs5lk7VrRDcRk-79">
          <mxGeometry width="160" relative="1" as="geometry">
            <mxPoint x="1350" y="654" as="sourcePoint" />
            <mxPoint x="1510" y="654" as="targetPoint" />
          </mxGeometry>
        </mxCell>
        <mxCell id="VngJL2sbs5lk7VrRDcRk-81" value="include" style="endArrow=open;endSize=12;dashed=1;html=1;rounded=0;exitX=0.5;exitY=0;exitDx=0;exitDy=0;entryX=0.5;entryY=1;entryDx=0;entryDy=0;" edge="1" parent="1" source="VngJL2sbs5lk7VrRDcRk-13" target="VngJL2sbs5lk7VrRDcRk-79">
          <mxGeometry width="160" relative="1" as="geometry">
            <mxPoint x="1350" y="654" as="sourcePoint" />
            <mxPoint x="1510" y="654" as="targetPoint" />
          </mxGeometry>
        </mxCell>
      </root>
    </mxGraphModel>
  </diagram>
  <diagram id="s2ESglrSOWT9k7wsF-Da" name="Page-2">
    <mxGraphModel dx="265" dy="756" grid="1" gridSize="10" guides="1" tooltips="1" connect="1" arrows="1" fold="1" page="1" pageScale="1" pageWidth="1169" pageHeight="827" math="0" shadow="0">
      <root>
        <mxCell id="0" />
        <mxCell id="1" parent="0" />
        <mxCell id="Wpcg9HTW6cz6-1trbRiE-1" value="" style="html=1;whiteSpace=wrap;" vertex="1" parent="1">
          <mxGeometry x="1330" y="100" width="710" height="620" as="geometry" />
        </mxCell>
        <mxCell id="Wpcg9HTW6cz6-1trbRiE-2" value="enregistrement&amp;nbsp;&lt;div&gt;véhicules&amp;nbsp;&lt;/div&gt;" style="ellipse;whiteSpace=wrap;html=1;" vertex="1" parent="1">
          <mxGeometry x="1700" y="220" width="140" height="70" as="geometry" />
        </mxCell>
        <mxCell id="Wpcg9HTW6cz6-1trbRiE-3" value="chef d&#39;atelier" style="shape=umlActor;verticalLabelPosition=bottom;verticalAlign=top;html=1;outlineConnect=0;" vertex="1" parent="1">
          <mxGeometry x="1690" y="116" width="30" height="60" as="geometry" />
        </mxCell>
        <mxCell id="Wpcg9HTW6cz6-1trbRiE-4" value="comptable" style="shape=umlActor;verticalLabelPosition=bottom;verticalAlign=top;html=1;outlineConnect=0;" vertex="1" parent="1">
          <mxGeometry x="1990" y="300" width="30" height="60" as="geometry" />
        </mxCell>
        <mxCell id="Wpcg9HTW6cz6-1trbRiE-5" value="Facturation" style="ellipse;whiteSpace=wrap;html=1;" vertex="1" parent="1">
          <mxGeometry x="1800" y="340" width="140" height="70" as="geometry" />
        </mxCell>
        <mxCell id="Wpcg9HTW6cz6-1trbRiE-6" value="magasignier" style="shape=umlActor;verticalLabelPosition=bottom;verticalAlign=top;html=1;outlineConnect=0;" vertex="1" parent="1">
          <mxGeometry x="1620" y="604" width="30" height="60" as="geometry" />
        </mxCell>
        <mxCell id="Wpcg9HTW6cz6-1trbRiE-7" value="mécanicien" style="shape=umlActor;verticalLabelPosition=bottom;verticalAlign=top;html=1;" vertex="1" parent="1">
          <mxGeometry x="1370" y="300" width="30" height="60" as="geometry" />
        </mxCell>
        <mxCell id="Wpcg9HTW6cz6-1trbRiE-8" value="réparé véhicule" style="ellipse;whiteSpace=wrap;html=1;" vertex="1" parent="1">
          <mxGeometry x="1495" y="305" width="140" height="70" as="geometry" />
        </mxCell>
        <mxCell id="Wpcg9HTW6cz6-1trbRiE-9" value="fournir pièces" style="ellipse;whiteSpace=wrap;html=1;" vertex="1" parent="1">
          <mxGeometry x="1604" y="450" width="140" height="70" as="geometry" />
        </mxCell>
        <mxCell id="Wpcg9HTW6cz6-1trbRiE-10" value="designer mécanicien" style="ellipse;whiteSpace=wrap;html=1;" vertex="1" parent="1">
          <mxGeometry x="1370" y="115" width="140" height="70" as="geometry" />
        </mxCell>
        <mxCell id="Wpcg9HTW6cz6-1trbRiE-11" value="avoir besoin&lt;div&gt;de pièces&lt;/div&gt;" style="ellipse;whiteSpace=wrap;html=1;" vertex="1" parent="1">
          <mxGeometry x="1420" y="430" width="140" height="70" as="geometry" />
        </mxCell>
        <mxCell id="Wpcg9HTW6cz6-1trbRiE-12" value="extend" style="endArrow=open;endSize=12;dashed=1;html=1;rounded=0;entryX=0.036;entryY=0.786;entryDx=0;entryDy=0;entryPerimeter=0;" edge="1" parent="1" source="Wpcg9HTW6cz6-1trbRiE-11" target="Wpcg9HTW6cz6-1trbRiE-8">
          <mxGeometry width="160" relative="1" as="geometry">
            <mxPoint x="1680" y="375" as="sourcePoint" />
            <mxPoint x="1840" y="375" as="targetPoint" />
          </mxGeometry>
        </mxCell>
        <mxCell id="Wpcg9HTW6cz6-1trbRiE-13" value="include" style="endArrow=open;endSize=12;dashed=1;html=1;rounded=0;exitX=0.5;exitY=0;exitDx=0;exitDy=0;entryX=1;entryY=0.5;entryDx=0;entryDy=0;" edge="1" parent="1" source="Wpcg9HTW6cz6-1trbRiE-9" target="Wpcg9HTW6cz6-1trbRiE-8">
          <mxGeometry width="160" relative="1" as="geometry">
            <mxPoint x="1680" y="375" as="sourcePoint" />
            <mxPoint x="1840" y="375" as="targetPoint" />
          </mxGeometry>
        </mxCell>
        <mxCell id="Wpcg9HTW6cz6-1trbRiE-14" value="&amp;nbsp;liste les réparations&lt;div&gt;et des pièces&lt;/div&gt;" style="ellipse;whiteSpace=wrap;html=1;" vertex="1" parent="1">
          <mxGeometry x="1830" y="155" width="140" height="70" as="geometry" />
        </mxCell>
        <mxCell id="Wpcg9HTW6cz6-1trbRiE-15" value="&lt;font style=&quot;font-size: 19px;&quot;&gt;Vue générale système&lt;/font&gt;" style="text;align=left;fontStyle=1;verticalAlign=middle;spacingLeft=3;spacingRight=3;strokeColor=none;rotatable=0;points=[[0,0.5],[1,0.5]];portConstraint=eastwest;html=1;" vertex="1" parent="1">
          <mxGeometry x="1330" y="696" width="80" height="26" as="geometry" />
        </mxCell>
        <mxCell id="Wpcg9HTW6cz6-1trbRiE-16" value="" style="endArrow=open;endFill=1;endSize=12;html=1;rounded=0;entryX=1;entryY=0.5;entryDx=0;entryDy=0;" edge="1" parent="1" source="Wpcg9HTW6cz6-1trbRiE-3" target="Wpcg9HTW6cz6-1trbRiE-10">
          <mxGeometry width="160" relative="1" as="geometry">
            <mxPoint x="1590" y="290" as="sourcePoint" />
            <mxPoint x="1750" y="290" as="targetPoint" />
          </mxGeometry>
        </mxCell>
        <mxCell id="Wpcg9HTW6cz6-1trbRiE-17" value="" style="endArrow=open;endFill=1;endSize=12;html=1;rounded=0;exitX=0;exitY=1;exitDx=0;exitDy=0;entryX=0.5;entryY=0;entryDx=0;entryDy=0;entryPerimeter=0;" edge="1" parent="1" source="Wpcg9HTW6cz6-1trbRiE-10" target="Wpcg9HTW6cz6-1trbRiE-7">
          <mxGeometry width="160" relative="1" as="geometry">
            <mxPoint x="1590" y="290" as="sourcePoint" />
            <mxPoint x="1390" y="300" as="targetPoint" />
          </mxGeometry>
        </mxCell>
        <mxCell id="Wpcg9HTW6cz6-1trbRiE-18" value="" style="endArrow=open;endFill=1;endSize=12;html=1;rounded=0;" edge="1" parent="1" target="Wpcg9HTW6cz6-1trbRiE-8">
          <mxGeometry width="160" relative="1" as="geometry">
            <mxPoint x="1390" y="340" as="sourcePoint" />
            <mxPoint x="1750" y="290" as="targetPoint" />
          </mxGeometry>
        </mxCell>
        <mxCell id="Wpcg9HTW6cz6-1trbRiE-19" value="demande pièces" style="ellipse;whiteSpace=wrap;html=1;" vertex="1" parent="1">
          <mxGeometry x="1420" y="594" width="140" height="70" as="geometry" />
        </mxCell>
        <mxCell id="Wpcg9HTW6cz6-1trbRiE-20" value="" style="endArrow=open;endFill=1;endSize=12;html=1;rounded=0;exitX=1;exitY=0.5;exitDx=0;exitDy=0;" edge="1" parent="1" source="Wpcg9HTW6cz6-1trbRiE-19" target="Wpcg9HTW6cz6-1trbRiE-6">
          <mxGeometry width="160" relative="1" as="geometry">
            <mxPoint x="1590" y="290" as="sourcePoint" />
            <mxPoint x="1750" y="290" as="targetPoint" />
          </mxGeometry>
        </mxCell>
        <mxCell id="Wpcg9HTW6cz6-1trbRiE-21" value="" style="endArrow=open;endFill=1;endSize=12;html=1;rounded=0;entryX=0.5;entryY=1;entryDx=0;entryDy=0;exitX=1;exitY=0.3333333333333333;exitDx=0;exitDy=0;exitPerimeter=0;" edge="1" parent="1" source="Wpcg9HTW6cz6-1trbRiE-6" target="Wpcg9HTW6cz6-1trbRiE-9">
          <mxGeometry width="160" relative="1" as="geometry">
            <mxPoint x="1970" y="550" as="sourcePoint" />
            <mxPoint x="1750" y="290" as="targetPoint" />
          </mxGeometry>
        </mxCell>
        <mxCell id="Wpcg9HTW6cz6-1trbRiE-22" value="" style="endArrow=open;endFill=1;endSize=12;html=1;rounded=0;entryX=0;entryY=0.5;entryDx=0;entryDy=0;" edge="1" parent="1" source="Wpcg9HTW6cz6-1trbRiE-3" target="Wpcg9HTW6cz6-1trbRiE-14">
          <mxGeometry width="160" relative="1" as="geometry">
            <mxPoint x="1590" y="290" as="sourcePoint" />
            <mxPoint x="1750" y="290" as="targetPoint" />
          </mxGeometry>
        </mxCell>
        <mxCell id="Wpcg9HTW6cz6-1trbRiE-23" value="" style="endArrow=open;endFill=1;endSize=12;html=1;rounded=0;exitX=0.5;exitY=0.5;exitDx=0;exitDy=0;exitPerimeter=0;" edge="1" parent="1" source="Wpcg9HTW6cz6-1trbRiE-3" target="Wpcg9HTW6cz6-1trbRiE-2">
          <mxGeometry width="160" relative="1" as="geometry">
            <mxPoint x="1730" y="161" as="sourcePoint" />
            <mxPoint x="1840" y="200" as="targetPoint" />
          </mxGeometry>
        </mxCell>
        <mxCell id="Wpcg9HTW6cz6-1trbRiE-24" value="" style="endArrow=open;endFill=1;endSize=12;html=1;rounded=0;exitX=0.5;exitY=1;exitDx=0;exitDy=0;" edge="1" parent="1" source="Wpcg9HTW6cz6-1trbRiE-14" target="Wpcg9HTW6cz6-1trbRiE-4">
          <mxGeometry width="160" relative="1" as="geometry">
            <mxPoint x="1590" y="290" as="sourcePoint" />
            <mxPoint x="1750" y="290" as="targetPoint" />
          </mxGeometry>
        </mxCell>
        <mxCell id="Wpcg9HTW6cz6-1trbRiE-25" value="" style="endArrow=open;endFill=1;endSize=12;html=1;rounded=0;entryX=0.5;entryY=0;entryDx=0;entryDy=0;" edge="1" parent="1" source="Wpcg9HTW6cz6-1trbRiE-4" target="Wpcg9HTW6cz6-1trbRiE-5">
          <mxGeometry width="160" relative="1" as="geometry">
            <mxPoint x="1900" y="230" as="sourcePoint" />
            <mxPoint x="1750" y="290" as="targetPoint" />
          </mxGeometry>
        </mxCell>
        <mxCell id="Wpcg9HTW6cz6-1trbRiE-26" value="vérifie réparations" style="ellipse;whiteSpace=wrap;html=1;" vertex="1" parent="1">
          <mxGeometry x="1495" y="195" width="140" height="70" as="geometry" />
        </mxCell>
        <mxCell id="Wpcg9HTW6cz6-1trbRiE-27" value="" style="endArrow=open;endFill=1;endSize=12;html=1;rounded=0;" edge="1" parent="1" source="Wpcg9HTW6cz6-1trbRiE-3" target="Wpcg9HTW6cz6-1trbRiE-26">
          <mxGeometry width="160" relative="1" as="geometry">
            <mxPoint x="1590" y="290" as="sourcePoint" />
            <mxPoint x="1750" y="290" as="targetPoint" />
          </mxGeometry>
        </mxCell>
        <mxCell id="Wpcg9HTW6cz6-1trbRiE-28" value="" style="endArrow=block;dashed=1;endFill=0;endSize=12;html=1;rounded=0;exitX=0.5;exitY=1;exitDx=0;exitDy=0;" edge="1" parent="1" source="Wpcg9HTW6cz6-1trbRiE-11" target="Wpcg9HTW6cz6-1trbRiE-19">
          <mxGeometry width="160" relative="1" as="geometry">
            <mxPoint x="1560" y="410" as="sourcePoint" />
            <mxPoint x="1720" y="410" as="targetPoint" />
          </mxGeometry>
        </mxCell>
        <mxCell id="Wpcg9HTW6cz6-1trbRiE-29" value="include" style="edgeLabel;html=1;align=center;verticalAlign=middle;resizable=0;points=[];" vertex="1" connectable="0" parent="Wpcg9HTW6cz6-1trbRiE-28">
          <mxGeometry x="0.0036" y="-1" relative="1" as="geometry">
            <mxPoint as="offset" />
          </mxGeometry>
        </mxCell>
        <mxCell id="Wpcg9HTW6cz6-1trbRiE-30" value="commerciale" style="shape=umlActor;verticalLabelPosition=bottom;verticalAlign=top;html=1;" vertex="1" parent="1">
          <mxGeometry x="1960" y="615" width="30" height="60" as="geometry" />
        </mxCell>
        <mxCell id="Wpcg9HTW6cz6-1trbRiE-31" value="vendre nouveaux véhicules" style="ellipse;whiteSpace=wrap;html=1;" vertex="1" parent="1">
          <mxGeometry x="1790" y="485" width="140" height="70" as="geometry" />
        </mxCell>
        <mxCell id="Wpcg9HTW6cz6-1trbRiE-32" value="" style="endArrow=open;endFill=1;endSize=12;html=1;rounded=0;exitX=0;exitY=0.3333333333333333;exitDx=0;exitDy=0;exitPerimeter=0;entryX=1;entryY=1;entryDx=0;entryDy=0;" edge="1" parent="1" source="Wpcg9HTW6cz6-1trbRiE-30" target="Wpcg9HTW6cz6-1trbRiE-31">
          <mxGeometry width="160" relative="1" as="geometry">
            <mxPoint x="1560" y="410" as="sourcePoint" />
            <mxPoint x="1720" y="410" as="targetPoint" />
          </mxGeometry>
        </mxCell>
        <mxCell id="Wpcg9HTW6cz6-1trbRiE-33" value="include" style="endArrow=open;endSize=12;dashed=1;html=1;rounded=0;exitX=0.5;exitY=0;exitDx=0;exitDy=0;entryX=0.421;entryY=0.964;entryDx=0;entryDy=0;entryPerimeter=0;" edge="1" parent="1" source="Wpcg9HTW6cz6-1trbRiE-31" target="Wpcg9HTW6cz6-1trbRiE-5">
          <mxGeometry width="160" relative="1" as="geometry">
            <mxPoint x="1560" y="410" as="sourcePoint" />
            <mxPoint x="1720" y="410" as="targetPoint" />
          </mxGeometry>
        </mxCell>
        <mxCell id="Wpcg9HTW6cz6-1trbRiE-34" value="réception pièces et&amp;nbsp;&lt;div&gt;véhicules neufs&lt;/div&gt;" style="ellipse;whiteSpace=wrap;html=1;" vertex="1" parent="1">
          <mxGeometry x="1710" y="624" width="140" height="70" as="geometry" />
        </mxCell>
        <mxCell id="Wpcg9HTW6cz6-1trbRiE-35" value="" style="endArrow=open;endFill=1;endSize=12;html=1;rounded=0;exitX=0;exitY=0.5;exitDx=0;exitDy=0;entryX=1;entryY=1;entryDx=0;entryDy=0;entryPerimeter=0;" edge="1" parent="1" source="Wpcg9HTW6cz6-1trbRiE-34" target="Wpcg9HTW6cz6-1trbRiE-6">
          <mxGeometry width="160" relative="1" as="geometry">
            <mxPoint x="1560" y="410" as="sourcePoint" />
            <mxPoint x="1720" y="410" as="targetPoint" />
          </mxGeometry>
        </mxCell>
        <mxCell id="Wpcg9HTW6cz6-1trbRiE-36" value="include" style="endArrow=open;endSize=12;dashed=1;html=1;rounded=0;exitX=0.5;exitY=1;exitDx=0;exitDy=0;entryX=1;entryY=0;entryDx=0;entryDy=0;" edge="1" parent="1" source="Wpcg9HTW6cz6-1trbRiE-31" target="Wpcg9HTW6cz6-1trbRiE-34">
          <mxGeometry width="160" relative="1" as="geometry">
            <mxPoint x="1560" y="410" as="sourcePoint" />
            <mxPoint x="1720" y="410" as="targetPoint" />
          </mxGeometry>
        </mxCell>
      </root>
    </mxGraphModel>
  </diagram>
</mxfile>
